P1
# pbma_io_prb_02.ascii.pbm created by PBMA_IO::PBMA_WRITE.F90.
     200       200
000000000000000000000000000000000000000000000000000000000000
000000000000000000000000000000000000000000000000000000000000
000000000000000000000000000000000000000000000000000000000000
00000000000000000000
000000000000000000000000000000000000000000000000000000000000
000000000000000000000000000000000000000000000000000000000000
000000000000000000000000000000000000000000000000000000000000
00000000000000000000
000000000000000000000000000000000000000000000000000000000000
000000000000000000000000000000000000000000000000000000000000
000000000000000000000000000000000000000000000000000000000000
00000000000000000000
000000000000000000000000000000000000000000000000000000000000
000000000000000000000000000000000000000000000000000000000000
000000000000000000000000000000000000000000000000000000000000
00000000000000000000
000000000000000000000000000000000000000000000000000000000000
000000000000000000000000000000000000000000000000000000000000
000000000000000000000000000000000000000000000000000000000000
00000000000000000000
000000000000000000000000000000000000000000000000000000000000
000000000000000000000000000000000000000000000000000000000000
000000000000000000000000000000000000000000000000000000000000
00000000000000000000
000000000000000000000000000000000000000000000000000000000000
000000000000000000000000000000000000000000000000000000000000
000000000000000000000000000000000000000000000000000000000000
00000000000000000000
000000000000000000000000000000000000000000000000000000000000
000000000000000000000000000000000000000000000000000000000000
000000000000000000000000000000000000000000000000000000000000
00000000000000000000
000000000000000000000000000000000000000000000000000000000000
000000000000000000000000000000000000000000000000000000000000
000000000000000000000000000000000000000000000000000000000000
00000000000000000000
000000000000000000000000000000000000000000000000000000000000
000000000000000000000000000000000000000000000000000000000000
000000000000000000000000000000000000000000000000000000000000
00000000000000000000
000000000000000000000000000000000000000000000000000000000000
000000000000000000000000000000000000000000000000000000000000
000000000000000000000000000000000000000000000000000000000000
00000000000000000000
000000000000000000000000000000000000000000000000000000000000
000000000000000000000000000000000000000000000000000000000000
000000000000000000000000000000000000000000000000000000000000
00000000000000000000
000000000000000000000000000000000000000000000000000000000000
000000000000000000000000000000000000000000000000000000000000
000000000000000000000000000000000000000000000000000000000000
00000000000000000000
000000000000000000000000000000000000000000000000000000000000
000000000000000000000000000000000000000000000000000000000000
000000000000000000000000000000000000000000000000000000000000
00000000000000000000
000000000000000000000000000000000000000000000000000000000000
000000000000000000000000000000000000000000000000000000000000
000000000000000000000000000000000000000000000000000000000000
00000000000000000000
000000000000000000000000000000000000000000000000000000000000
000000000000000000000000000000000000000000000000000000000000
000000000000000000000000000000000000000000000000000000000000
00000000000000000000
000000000000000000000000000000000000000000000000000000000000
000000000000000000000000000000000000000000000000000000000000
000000000000000000000000000000000000000000000000000000000000
00000000000000000000
000000000000000000000000000000000000000000000000000000000000
000000000000000000000000000000000000000000000000000000000000
000000000000000000000000000000000000000000000000000000000000
00000000000000000000
000000000000000000000000000000000000000000000000000000000000
000000000000000000000000000000000000000000000000000000000000
000000000000000000000000000000000000000000000000000000000000
00000000000000000000
000000000000000000000000000000000000000000000000000000000000
000000000000000000000000000000001111111111111110000000000000
000000000000000000000000000000000000000000000000000000000000
00000000000000000000
000000000000000000000000000000000000000000000000000000000000
000000000000000000000000001111111111111111111111111110000000
000000000000000000000000000000000000000000000000000000000000
00000000000000000000
000000000000000000000000000000000000000000000000000000000000
000000000000000000000011111111111111111111111111111111111000
000000000000000000000000000000000000000000000000000000000000
00000000000000000000
000000000000000000000000000000000000000000000000000000000000
000000000000000000011111111111111111111111111111111111111111
000000000000000000000000000000000000000000000000000000000000
00000000000000000000
000000000000000000000000000000000000000000000000000000000000
000000000000000001111111111111111111111111111111111111111111
110000000000000000000000000000000000000000000000000000000000
00000000000000000000
000000000000000000000000000000000000000000000000000000000000
000000000000001111111111111111111111111111111111111111111111
111110000000000000000000000000000000000000000000000000000000
00000000000000000000
000000000000000000000000000000000000000000000000000000000000
000000000000111111111111111111111111111111111111111111111111
111111100000000000000000000000000000000000000000000000000000
00000000000000000000
000000000000000000000000000000000000000000000000000000000000
000000000011111111111111111111110000000000000001111111111111
111111111000000000000000000000000000000000000000000000000000
00000000000000000000
000000000000000000000000000000000000000000000000000000000000
000000001111111111111111111000000000000000000000000011111111
111111111110000000000000000000000000000000000000000000000000
00000000000000000000
000000000000000000000000000000000000000000000000000000000000
000000011111111111111110000000000000000000000000000000001111
111111111111000000000000000000000000000000000000000000000000
00000000000000000000
000000000000000000000000000000000000000000000000000000000000
000001111111111111110000000000000000000000000000000000000001
111111111111110000000000000000000000000000000000000000000000
00000000000000000000
000000000000000000000000000000000000000000000000000000000000
000011111111111111000000000000000000000000000000000000000000
011111111111111000000000000000000000000000000000000000000000
00000000000000000000
000000000000000000000000000000000000000000000000000000000000
001111111111111000000000000000000000000000000000000000000000
000011111111111110000000000000000000000000000000000000000000
00000000000000000000
000000000000000000000000000000000000000000000000000000000000
011111111111100000000000000000000000000000000000000000000000
000000111111111111000000000000000000000000000000000000000000
00000000000000000000
000000000000000000000000000000000000000000000000000000000000
111111111110000000000000000000000000000000000000000000000000
000000001111111111100000000000000000000000000000000000000000
00000000000000000000
000000000000000000000000000000000000000000000000000000000011
111111111100000000000000000000000000000000000000000000000000
000000000111111111111000000000000000000000000000000000000000
00000000000000000000
000000000000000000000000000000000000000000000000000000000111
111111110000000000000000000000000000000000000000000000000000
000000000001111111111100000000000000000000000000000000000000
00000000000000000000
000000000000000000000000000000000000000000000000000000001111
111111100000000000000000000000000000000000000000000000000000
000000000000111111111110000000000000000000000000000000000000
00000000000000000000
000000000000000000000000000000000000000000000000000000011111
111110000000000000000000000000000000000000000000000000000000
000000000000001111111111000000000000000000000000000000000000
00000000000000000000
000000000000000000000000000000000000000000000000000000111111
111100000000000000000000000000000000000000000000000000000000
000000000000000111111111100000000000000000000000000000000000
00000000000000000000
000000000000000000000000000000000000000000000000000001111111
111000000000000000000000000000000000000000000000000000000000
000000000000000011111111110000000000000000000000000000000000
00000000000000000000
000000000000000000000000000000000000000000000000000011111111
110000000000000000000000000000000000000000000000000000000000
000000000000000001111111111000000000000000000000000000000000
00000000000000000000
000000000000000000000000000000000000000000000000000111111111
000000000000000000000000000000000000000000000000000000000000
000000000000000000011111111100000000000000000000000000000000
00000000000000000000
000000000000000000000000000000000000000000000000001111111110
000000000000000000000000000000000000000000000000000000000000
000000000000000000001111111110000000000000000000000000000000
00000000000000000000
000000000000000000000000000000000000000000000000011111111100
000000000000000000000000000000000000000000000000000000000000
000000000000000000000111111111000000000000000000000000000000
00000000000000000000
000000000000000000000000000000000000000000000000011111111000
000000000000000000000000000000000000000000000000000000000000
000000000000000000000011111111000000000000000000000000000000
00000000000000000000
000000000000000000000000000000000000000000000000111111110000
000000000000000000000000000000000000000000000000000000000000
000000000000000000000001111111100000000000000000000000000000
00000000000000000000
000000000000000000000000000000000000000000000001111111100000
000000000000000000000000000000000000000000000000000000000000
000000000000000000000000111111110000000000000000000000000000
00000000000000000000
000000000000000000000000000000000000000000000011111111000000
000000000000000000000000000000000000000000000000000000000000
000000000000000000000000011111111000000000000000000000000000
00000000000000000000
000000000000000000000000000000000000000000000011111111000000
000000000000000000000000000000000000000000000000000000000000
000000000000000000000000011111111000000000000000000000000000
00000000000000000000
000000000000000000000000000000000000000000000111111110000000
000000000000000000000000000000000000000000000000000000000000
000000000000000000000000001111111100000000000000000000000000
00000000000000000000
000000000000000000000000000000000000000000001111111100000000
000000000000000000000000000000000000000000000000000000000000
000000000000000000000000000111111110000000000000000000000000
00000000000000000000
000000000000000000000000000000000000000000001111111000000000
000000000000000000000000000000000000000000000000000000000000
000000000000000000000000000011111110000000000000000000000000
00000000000000000000
000000000000000000000000000000000000000000011111111000000000
000000000000000000000000000000000000000000000000000000000000
000000000000000000000000000011111111000000000000000000000000
00000000000000000000
000000000000000000000000000000000000000000111111110000000000
000000000000000000000000000000000000000000000000000000000000
000000000000000000000000000001111111100000000000000000000000
00000000000000000000
000000000000000000000000000000000000000000111111100000000000
000000000000000000000000000000000000000000000000000000000000
000000000000000000000000000000111111100000000000000000000000
00000000000000000000
000000000000000000000000000000000000000001111111000000000000
000000000000000000000000000000000000000000000000000000000000
000000000000000000000000000000011111110000000000000000000000
00000000000000000000
000000000000000000000000000000000000000001111111000000000000
000000000000000000000000000000000000000000000000000000000000
000000000000000000000000000000011111110000000000000000000000
00000000000000000000
000000000000000000000000000000000000000011111110000000000000
000000000000000000000000000000000000000000000000000000000000
000000000000000000000000000000001111111000000000000000000000
00000000000000000000
000000000000000000000000000000000000000011111110000000000000
000000000000000000000000000000000000000000000000000000000000
000000000000000000000000000000001111111000000000000000000000
00000000000000000000
000000000000000000000000000000000000000111111100000000000000
000000000000000000000000000000000000000000000000000000000000
000000000000000000000000000000000111111100000000000000000000
00000000000000000000
000000000000000000000000000000000000000111111100000000000000
000000000000000000000000000000000000000000000000000000000000
000000000000000000000000000000000111111100000000000000000000
00000000000000000000
000000000000000000000000000000000000001111111000000000000000
000000000000000000000000000000000000000000000000000000000000
000000000000000000000000000000000011111110000000000000000000
00000000000000000000
000000000000000000000000000000000000001111110000000000000000
000000000000000000000000000000000000000000000000000000000000
000000000000000000000000000000000001111110000000000000000000
00000000000000000000
000000000000000000000000000000000000011111110000000000000000
000000000000000000000000000000000000000000000000000000000000
000000000000000000000000000000000001111111000000000000000000
00000000000000000000
000000000000000000000000000000000000011111110000000000000000
000000000000000000000000000000000000000000000000000000000000
000000000000000000000000000000000001111111000000000000000000
00000000000000000000
000000000000000000000000000000000000111111100000000000000000
000000000000000000000000000000000000000000000000000000000000
000000000000000000000000000000000000111111100000000000000000
00000000000000000000
000000000000000000000000000000000000111111100000000000000000
000000000000000000000000000000000000000000000000000000000000
000000000000000000000000000000000000111111100000000000000000
00000000000000000000
000000000000000000000000000000000000111111000000000000000000
000000000000000000000000000000000000000000000000000000000000
000000000000000000000000000000000000011111100000000000000000
00000000000000000000
000000000000000000000000000000000001111111000000000000000000
000000000000000000000000000000000000000000000000000000000000
000000000000000000000000000000000000011111110000000000000000
00000000000000000000
000000000000000000000000000000000001111110000000000000000000
000000000000000000000000000000000000000000000000000000000000
000000000000000000000000000000000000001111110000000000000000
00000000000000000000
000000000000000000000000000000000001111110000000000000000000
000000000000000000000000000000000000000000000000000000000000
000000000000000000000000000000000000001111110000000000000000
00000000000000000000
000000000000000000000000000000000011111110000000000000000000
000000000000000000000000000000000000000000000000000000000000
000000000000000000000000000000000000001111111000000000000000
00000000000000000000
000000000000000000000000000000000011111100000000000000000000
000000000000000000000000000000000000000000000000000000000000
000000000000000000000000000000000000000111111000000000000000
00000000000000000000
000000000000000000000000000000000011111100000000000000000000
000000000000000000000000000000000000000000000000000000000000
000000000000000000000000000000000000000111111000000000000000
00000000000000000000
000000000000000000000000000000000111111100000000000000000000
000000000000000000000000000000000000000000000000000000000000
000000000000000000000000000000000000000111111100000000000000
00000000000000000000
000000000000000000000000000000000111111000000000000000000000
000000000000000000000000000000000000000000000000000000000000
000000000000000000000000000000000000000011111100000000000000
00000000000000000000
000000000000000000000000000000000111111000000000000000000000
000000000000000000000000000000000000000000000000000000000000
000000000000000000000000000000000000000011111100000000000000
00000000000000000000
000000000000000000000000000000001111111000000000000000000000
000000000000000000000000000000000000000000000000000000000000
000000000000000000000000000000000000000011111110000000000000
00000000000000000000
000000000000000000000000000000001111110000000000000000000000
000000000000000000000000000000000000000000000000000000000000
000000000000000000000000000000000000000001111110000000000000
00000000000000000000
000000000000000000000000000000001111110000000000000000000000
000000000000000000000000000000000000000000000000000000000000
000000000000000000000000000000000000000001111110000000000000
00000000000000000000
000000000000000000000000000000001111110000000000000000000000
000000000000000000000000000000000000000000000000000000000000
000000000000000000000000000000000000000001111110000000000000
00000000000000000000
000000000000000000000000000000001111110000000000000000000000
000000000000000000000000000000000000000000000000000000000000
000000000000000000000000000000000000000001111110000000000000
00000000000000000000
000000000000000000000000000000011111110000000000000000000000
000000000000000000000000000000000000000000000000000000000000
000000000000000000000000000000000000000001111111000000000000
00000000000000000000
000000000000000000000000000000011111100000000000000000000000
000000000000000000000000000000000000000000000000000000000000
000000000000000000000000000000000000000000111111000000000000
00000000000000000000
000000000000000000000000000000011111100000000000000000000000
000000000000000000000000000000000000000000000000000000000000
000000000000000000000000000000000000000000111111000000000000
00000000000000000000
000000000000000000000000000000011111100000000000000000000000
000000000000000000000000000000000000000000000000000000000000
000000000000000000000000000000000000000000111111000000000000
00000000000000000000
000000000000000000000000000000011111100000000000000000000000
000000000000000000000000000000000000000000000000000000000000
000000000000000000000000000000000000000000111111000000000000
00000000000000000000
000000000000000000000000000000011111100000000000000000000000
000000000000000000000000000000000000000000000000000000000000
000000000000000000000000000000000000000000111111000000000000
00000000000000000000
000000000000000000000000000000111111100000000000000000000000
000000000000000000000000000000000000000000000000000000000000
000000000000000000000000000000000000000000111111100000000000
00000000000000000000
000000000000000000000000000000111111000000000000000000000000
000000000000000000000000000000000000000000000000000000000000
000000000000000000000000000000000000000000011111100000000000
00000000000000000000
000000000000000000000000000000111111000000000000000000000000
000000000000000000000000000000000000000000000000000000000000
000000000000000000000000000000000000000000011111100000000000
00000000000000000000
000000000000000000000000000000111111000000000000000000000000
000000000000000000000000000000000000000000000000000000000000
000000000000000000000000000000000000000000011111100000000000
00000000000000000000
000000000000000000000000000000111111000000000000000000000000
000000000000000000000000000000000000000000000000000000000000
000000000000000000000000000000000000000000011111100000000000
00000000000000000000
000000000000000000000000000000111111000000000000000000000000
000000000000000000000000000000000000000000000000000000000000
000000000000000000000000000000000000000000011111100000000000
00000000000000000000
000000000000000000000000000000111111000000000000000000000000
000000000000000000000000000000000000000000000000000000000000
000000000000000000000000000000000000000000011111100000000000
00000000000000000000
000000000000000000000000000000111111000000000000000000000000
000000000000000000000000000000000000000000000000000000000000
000000000000000000000000000000000000000000011111100000000000
00000000000000000000
000000000000000000000000000000111111000000000000000000000000
000000000000000000000000000000000000000000000000000000000000
000000000000000000000000000000000000000000011111100000000000
00000000000000000000
000000000000000000000000000000111111000000000000000000000000
000000000000000000000000000000000000000000000000000000000000
000000000000000000000000000000000000000000011111100000000000
00000000000000000000
000000000000000000000000000000111111000000000000000000000000
000000000000000000000000000000000000000000000000000000000000
000000000000000000000000000000000000000000011111100000000000
00000000000000000000
000000000000000000000000000000111111000000000000000000000000
000000000000000000000000000000000000000000000000000000000000
000000000000000000000000000000000000000000011111100000000000
00000000000000000000
000000000000000000000000000000111111000000000000000000000000
000000000000000000000000000000000000000000000000000000000000
000000000000000000000000000000000000000000011111100000000000
00000000000000000000
000000000000000000000000000000111111000000000000000000000000
000000000000000000000000000000000000000000000000000000000000
000000000000000000000000000000000000000000011111100000000000
00000000000000000000
000000000000000000000000000000111111000000000000000000000000
000000000000000000000000000000000000000000000000000000000000
000000000000000000000000000000000000000000011111100000000000
00000000000000000000
000000000000000000000000000000111111000000000000000000000000
000000000000000000000000000000000000000000000000000000000000
000000000000000000000000000000000000000000011111100000000000
00000000000000000000
000000000000000000000000000000111111000000000000000000000000
000000000000000000000000000000000000000000000000000000000000
000000000000000000000000000000000000000000011111100000000000
00000000000000000000
000000000000000000000000000000111111000000000000000000000000
000000000000000000000000000000000000000000000000000000000000
000000000000000000000000000000000000000000011111100000000000
00000000000000000000
000000000000000000000000000000111111000000000000000000000000
000000000000000000000000000000000000000000000000000000000000
000000000000000000000000000000000000000000011111100000000000
00000000000000000000
000000000000000000000000000000111111000000000000000000000000
000000000000000000000000000000000000000000000000000000000000
000000000000000000000000000000000000000000011111100000000000
00000000000000000000
000000000000000000000000000000111111000000000000000000000000
000000000000000000000000000000000000000000000000000000000000
000000000000000000000000000000000000000000011111100000000000
00000000000000000000
000000000000000000000000000000111111000000000000000000000000
000000000000000000000000000000000000000000000000000000000000
000000000000000000000000000000000000000000011111100000000000
00000000000000000000
000000000000000000000000000000111111100000000000000000000000
000000000000000000000000000000000000000000000000000000000000
000000000000000000000000000000000000000000111111100000000000
00000000000000000000
000000000000000000000000000000011111100000000000000000000000
000000000000000000000000000000000000000000000000000000000000
000000000000000000000000000000000000000000111111000000000000
00000000000000000000
000000000000000000000000000000011111100000000000000000000000
000000000000000000000000000000000000000000000000000000000000
000000000000000000000000000000000000000000111111000000000000
00000000000000000000
000000000000000000000000000000011111100000000000000000000000
000000000000000000000000000000000000000000000000000000000000
000000000000000000000000000000000000000000111111000000000000
00000000000000000000
000000000000000000000000000000011111100000000000000000000000
000000000000000000000000000000000000000000000000000000000000
000000000000000000000000000000000000000000111111000000000000
00000000000000000000
000000000000000000000000000000011111100000000000000000000000
000000000000000000000000000000000000000000000000000000000000
000000000000000000000000000000000000000000111111000000000000
00000000000000000000
000000000000000000000000000000011111110000000000000000000000
000000000000000000000000000000000000000000000000000000000000
000000000000000000000000000000000000000001111111000000000000
00000000000000000000
000000000000000000000000000000001111110000000000000000000000
000000000000000000000000000000000000000000000000000000000000
000000000000000000000000000000000000000001111110000000000000
00000000000000000000
000000000000000000000000000000001111110000000000000000000000
000000000000000000000000000000000000000000000000000000000000
000000000000000000000000000000000000000001111110000000000000
00000000000000000000
000000000000000000000000000000001111110000000000000000000000
000000000000000000000000000000000000000000000000000000000000
000000000000000000000000000000000000000001111110000000000000
00000000000000000000
000000000000000000000000000000001111110000000000000000000000
000000000000000000000000000000000000000000000000000000000000
000000000000000000000000000000000000000001111110000000000000
00000000000000000000
000000000000000000000000000000001111111000000000000000000000
000000000000000000000000000000000000000000000000000000000000
000000000000000000000000000000000000000011111110000000000000
00000000000000000000
000000000000000000000000000000000111111000000000000000000000
000000000000000000000000000000000000000000000000000000000000
000000000000000000000000000000000000000011111100000000000000
00000000000000000000
000000000000000000000000000000000111111000000000000000000000
000000000000000000000000000000000000000000000000000000000000
000000000000000000000000000000000000000011111100000000000000
00000000000000000000
000000000000000000000000000000000111111100000000000000000000
000000000000000000000000000000000000000000000000000000000000
000000000000000000000000000000000000000111111100000000000000
00000000000000000000
000000000000000000000000000000000011111100000000000000000000
000000000000000000000000000000000000000000000000000000000000
000000000000000000000000000000000000000111111000000000000000
00000000000000000000
000000000000000000000000000000000011111100000000000000000000
000000000000000000000000000000000000000000000000000000000000
000000000000000000000000000000000000000111111000000000000000
00000000000000000000
000000000000000000000000000000000011111110000000000000000000
000000000000000000000000000000000000000000000000000000000000
000000000000000000000000000000000000001111111000000000000000
00000000000000000000
000000000000000000000000000000000001111110000000000000000000
000000000000000000000000000000000000000000000000000000000000
000000000000000000000000000000000000001111110000000000000000
00000000000000000000
000000000000000000000000000000000001111110000000000000000000
000000000000000000000000000000000000000000000000000000000000
000000000000000000000000000000000000001111110000000000000000
00000000000000000000
000000000000000000000000000000000001111111000000000000000000
000000000000000000000000000000000000000000000000000000000000
000000000000000000000000000000000000011111110000000000000000
00000000000000000000
000000000000000000000000000000000000111111000000000000000000
000000000000000000000000000000000000000000000000000000000000
000000000000000000000000000000000000011111100000000000000000
00000000000000000000
000000000000000000000000000000000000111111100000000000000000
000000000000000000000000000000000000000000000000000000000000
000000000000000000000000000000000000111111100000000000000000
00000000000000000000
000000000000000000000000000000000000111111100000000000000000
000000000000000000000000000000000000000000000000000000000000
000000000000000000000000000000000000111111100000000000000000
00000000000000000000
000000000000000000000000000000000000011111110000000000000000
000000000000000000000000000000000000000000000000000000000000
000000000000000000000000000000000001111111000000000000000000
00000000000000000000
000000000000000000000000000000000000011111110000000000000000
000000000000000000000000000000000000000000000000000000000000
000000000000000000000000000000000001111111000000000000000000
00000000000000000000
000000000000000000000000000000000000001111110000000000000000
000000000000000000000000000000000000000000000000000000000000
000000000000000000000000000000000001111110000000000000000000
00000000000000000000
000000000000000000000000000000000000001111111000000000000000
000000000000000000000000000000000000000000000000000000000000
000000000000000000000000000000000011111110000000000000000000
00000000000000000000
000000000000000000000000000000000000000111111100000000000000
000000000000000000000000000000000000000000000000000000000000
000000000000000000000000000000000111111100000000000000000000
00000000000000000000
000000000000000000000000000000000000000111111100000000000000
000000000000000000000000000000000000000000000000000000000000
000000000000000000000000000000000111111100000000000000000000
00000000000000000000
000000000000000000000000000000000000000011111110000000000000
000000000000000000000000000000000000000000000000000000000000
000000000000000000000000000000001111111000000000000000000000
00000000000000000000
000000000000000000000000000000000000000011111110000000000000
000000000000000000000000000000000000000000000000000000000000
000000000000000000000000000000001111111000000000000000000000
00000000000000000000
000000000000000000000000000000000000000001111111000000000000
000000000000000000000000000000000000000000000000000000000000
000000000000000000000000000000011111110000000000000000000000
00000000000000000000
000000000000000000000000000000000000000001111111000000000000
000000000000000000000000000000000000000000000000000000000000
000000000000000000000000000000011111110000000000000000000000
00000000000000000000
000000000000000000000000000000000000000000111111100000000000
000000000000000000000000000000000000000000000000000000000000
000000000000000000000000000000111111100000000000000000000000
00000000000000000000
000000000000000000000000000000000000000000111111110000000000
000000000000000000000000000000000000000000000000000000000000
000000000000000000000000000001111111100000000000000000000000
00000000000000000000
000000000000000000000000000000000000000000011111111000000000
000000000000000000000000000000000000000000000000000000000000
000000000000000000000000000011111111000000000000000000000000
00000000000000000000
000000000000000000000000000000000000000000001111111000000000
000000000000000000000000000000000000000000000000000000000000
000000000000000000000000000011111110000000000000000000000000
00000000000000000000
000000000000000000000000000000000000000000001111111100000000
000000000000000000000000000000000000000000000000000000000000
000000000000000000000000000111111110000000000000000000000000
00000000000000000000
000000000000000000000000000000000000000000000111111110000000
000000000000000000000000000000000000000000000000000000000000
000000000000000000000000001111111100000000000000000000000000
00000000000000000000
000000000000000000000000000000000000000000000011111111000000
000000000000000000000000000000000000000000000000000000000000
000000000000000000000000011111111000000000000000000000000000
00000000000000000000
000000000000000000000000000000000000000000000011111111000000
000000000000000000000000000000000000000000000000000000000000
000000000000000000000000011111111000000000000000000000000000
00000000000000000000
000000000000000000000000000000000000000000000001111111100000
000000000000000000000000000000000000000000000000000000000000
000000000000000000000000111111110000000000000000000000000000
00000000000000000000
000000000000000000000000000000000000000000000000111111110000
000000000000000000000000000000000000000000000000000000000000
000000000000000000000001111111100000000000000000000000000000
00000000000000000000
000000000000000000000000000000000000000000000000011111111000
000000000000000000000000000000000000000000000000000000000000
000000000000000000000011111111000000000000000000000000000000
00000000000000000000
000000000000000000000000000000000000000000000000011111111100
000000000000000000000000000000000000000000000000000000000000
000000000000000000000111111111000000000000000000000000000000
00000000000000000000
000000000000000000000000000000000000000000000000001111111110
000000000000000000000000000000000000000000000000000000000000
000000000000000000001111111110000000000000000000000000000000
00000000000000000000
000000000000000000000000000000000000000000000000000111111111
000000000000000000000000000000000000000000000000000000000000
000000000000000000011111111100000000000000000000000000000000
00000000000000000000
000000000000000000000000000000000000000000000000000011111111
110000000000000000000000000000000000000000000000000000000000
000000000000000001111111111000000000000000000000000000000000
00000000000000000000
000000000000000000000000000000000000000000000000000001111111
111000000000000000000000000000000000000000000000000000000000
000000000000000011111111110000000000000000000000000000000000
00000000000000000000
000000000000000000000000000000000000000000000000000000111111
111100000000000000000000000000000000000000000000000000000000
000000000000000111111111100000000000000000000000000000000000
00000000000000000000
000000000000000000000000000000000000000000000000000000011111
111110000000000000000000000000000000000000000000000000000000
000000000000001111111111000000000000000000000000000000000000
00000000000000000000
000000000000000000000000000000000000000000000000000000001111
111111100000000000000000000000000000000000000000000000000000
000000000000111111111110000000000000000000000000000000000000
00000000000000000000
000000000000000000000000000000000000000000000000000000000111
111111110000000000000000000000000000000000000000000000000000
000000000001111111111100000000000000000000000000000000000000
00000000000000000000
000000000000000000000000000000000000000000000000000000000011
111111111100000000000000000000000000000000000000000000000000
000000000111111111111000000000000000000000000000000000000000
00000000000000000000
000000000000000000000000000000000000000000000000000000000000
111111111110000000000000000000000000000000000000000000000000
000000001111111111100000000000000000000000000000000000000000
00000000000000000000
000000000000000000000000000000000000000000000000000000000000
011111111111100000000000000000000000000000000000000000000000
000000111111111111000000000000000000000000000000000000000000
00000000000000000000
000000000000000000000000000000000000000000000000000000000000
001111111111111000000000000000000000000000000000000000000000
000011111111111110000000000000000000000000000000000000000000
00000000000000000000
000000000000000000000000000000000000000000000000000000000000
000011111111111111000000000000000000000000000000000000000000
011111111111111000000000000000000000000000000000000000000000
00000000000000000000
000000000000000000000000000000000000000000000000000000000000
000001111111111111110000000000000000000000000000000000000001
111111111111110000000000000000000000000000000000000000000000
00000000000000000000
000000000000000000000000000000000000000000000000000000000000
000000011111111111111110000000000000000000000000000000001111
111111111111000000000000000000000000000000000000000000000000
00000000000000000000
000000000000000000000000000000000000000000000000000000000000
000000001111111111111111111000000000000000000000000011111111
111111111110000000000000000000000000000000000000000000000000
00000000000000000000
000000000000000000000000000000000000000000000000000000000000
000000000011111111111111111111110000000000000001111111111111
111111111000000000000000000000000000000000000000000000000000
00000000000000000000
000000000000000000000000000000000000000000000000000000000000
000000000000111111111111111111111111111111111111111111111111
111111100000000000000000000000000000000000000000000000000000
00000000000000000000
000000000000000000000000000000000000000000000000000000000000
000000000000001111111111111111111111111111111111111111111111
111110000000000000000000000000000000000000000000000000000000
00000000000000000000
000000000000000000000000000000000000000000000000000000000000
000000000000000001111111111111111111111111111111111111111111
110000000000000000000000000000000000000000000000000000000000
00000000000000000000
000000000000000000000000000000000000000000000000000000000000
000000000000000000011111111111111111111111111111111111111111
000000000000000000000000000000000000000000000000000000000000
00000000000000000000
000000000000000000000000000000000000000000000000000000000000
000000000000000000000011111111111111111111111111111111111000
000000000000000000000000000000000000000000000000000000000000
00000000000000000000
000000000000000000000000000000000000000000000000000000000000
000000000000000000000000001111111111111111111111111110000000
000000000000000000000000000000000000000000000000000000000000
00000000000000000000
000000000000000000000000000000000000000000000000000000000000
000000000000000000000000000000001111111111111110000000000000
000000000000000000000000000000000000000000000000000000000000
00000000000000000000
000000000000000000000000000000000000000000000000000000000000
000000000000000000000000000000000000000000000000000000000000
000000000000000000000000000000000000000000000000000000000000
00000000000000000000
000000000000000000000000000000000000000000000000000000000000
000000000000000000000000000000000000000000000000000000000000
000000000000000000000000000000000000000000000000000000000000
00000000000000000000
000000000000000000000000000000000000000000000000000000000000
000000000000000000000000000000000000000000000000000000000000
000000000000000000000000000000000000000000000000000000000000
00000000000000000000
000000000000000000000000000000000000000000000000000000000000
000000000000000000000000000000000000000000000000000000000000
000000000000000000000000000000000000000000000000000000000000
00000000000000000000
000000000000000000000000000000000000000000000000000000000000
000000000000000000000000000000000000000000000000000000000000
000000000000000000000000000000000000000000000000000000000000
00000000000000000000
000000000000000000000000000000000000000000000000000000000000
000000000000000000000000000000000000000000000000000000000000
000000000000000000000000000000000000000000000000000000000000
00000000000000000000
000000000000000000000000000000000000000000000000000000000000
000000000000000000000000000000000000000000000000000000000000
000000000000000000000000000000000000000000000000000000000000
00000000000000000000
000000000000000000000000000000000000000000000000000000000000
000000000000000000000000000000000000000000000000000000000000
000000000000000000000000000000000000000000000000000000000000
00000000000000000000
000000000000000000000000000000000000000000000000000000000000
000000000000000000000000000000000000000000000000000000000000
000000000000000000000000000000000000000000000000000000000000
00000000000000000000
000000000000000000000000000000000000000000000000000000000000
000000000000000000000000000000000000000000000000000000000000
000000000000000000000000000000000000000000000000000000000000
00000000000000000000
000000000000000000000000000000000000000000000000000000000000
000000000000000000000000000000000000000000000000000000000000
000000000000000000000000000000000000000000000000000000000000
00000000000000000000
000000000000000000000000000000000000000000000000000000000000
000000000000000000000000000000000000000000000000000000000000
000000000000000000000000000000000000000000000000000000000000
00000000000000000000
000000000000000000000000000000000000000000000000000000000000
000000000000000000000000000000000000000000000000000000000000
000000000000000000000000000000000000000000000000000000000000
00000000000000000000
000000000000000000000000000000000000000000000000000000000000
000000000000000000000000000000000000000000000000000000000000
000000000000000000000000000000000000000000000000000000000000
00000000000000000000
000000000000000000000000000000000000000000000000000000000000
000000000000000000000000000000000000000000000000000000000000
000000000000000000000000000000000000000000000000000000000000
00000000000000000000
000000000000000000000000000000000000000000000000000000000000
000000000000000000000000000000000000000000000000000000000000
000000000000000000000000000000000000000000000000000000000000
00000000000000000000
000000000000000000000000000000000000000000000000000000000000
000000000000000000000000000000000000000000000000000000000000
000000000000000000000000000000000000000000000000000000000000
00000000000000000000
000000000000000000000000000000000000000000000000000000000000
000000000000000000000000000000000000000000000000000000000000
000000000000000000000000000000000000000000000000000000000000
00000000000000000000
000000000000000000000000000000000000000000000000000000000000
000000000000000000000000000000000000000000000000000000000000
000000000000000000000000000000000000000000000000000000000000
00000000000000000000
000000000000000000000000000000000000000000000000000000000000
000000000000000000000000000000000000000000000000000000000000
000000000000000000000000000000000000000000000000000000000000
00000000000000000000
